<?xml version="1.0" encoding="UTF-8" standalone="no"?>
<!-- Created with Inkscape (http://www.inkscape.org/) -->
<svg id="svg2" xmlns:inkscape="http://www.inkscape.org/namespaces/inkscape" xmlns:rdf="http://www.w3.org/1999/02/22-rdf-syntax-ns#" xmlns="http://www.w3.org/2000/svg" sodipodi:docname="CADICEA_logo_fr_®-CMYK.ai" xml:space="preserve" viewBox="0 0 232.39 73.15" version="1.1" xmlns:cc="http://creativecommons.org/ns#" xmlns:dc="http://purl.org/dc/elements/1.1/" inkscape:version="0.48.5 r10040" xmlns:sodipodi="http://sodipodi.sourceforge.net/DTD/sodipodi-0.dtd"><metadata id="metadata8"><rdf:RDF><cc:Work rdf:about=""><dc:format>image/svg+xml</dc:format><dc:type rdf:resource="http://purl.org/dc/dcmitype/StillImage"/><dc:title/></cc:Work></rdf:RDF></metadata><defs id="defs6"><clipPath id="clipPath16" clipPathUnits="userSpaceOnUse"><path id="path18" inkscape:connector-curvature="0" d="m0,595.28,841.89,0v-595.28h-841.89v595.28z"/></clipPath><linearGradient id="linearGradient64" gradientUnits="userSpaceOnUse" gradientTransform="matrix(-2.3e-6,53.082905,53.082905,2.3e-6,378.17627,304.83838)"><stop id="stop66" stop-color="#3580cb" offset="0"/><stop id="stop68" stop-color="#2251aa" offset="1"/></linearGradient><linearGradient id="linearGradient84" gradientUnits="userSpaceOnUse" gradientTransform="matrix(28.97168,0,0,-28.97168,310.98682,342.43994)"><stop id="stop86" stop-color="#ec0a66" offset="0"/><stop id="stop88" stop-color="#f9b3dd" offset="0.59025"/><stop id="stop90" stop-color="#ec0a66" offset="0.80215"/><stop id="stop92" stop-color="#ef2a77" offset="1"/></linearGradient><radialGradient id="radialGradient108" gradientUnits="userSpaceOnUse" cy="0" cx="0" gradientTransform="matrix(-3.9100931,-3.3515093,-3.3515093,3.9100931,391.6377,341.22949)" r="1"><stop id="stop110" stop-color="#f9b3dd" offset="0"/><stop id="stop112" stop-color="#f688b8" offset="0.2857"/><stop id="stop114" stop-color="#ec0a66" offset="0.80215"/><stop id="stop116" stop-color="#ef2a77" offset="1"/></radialGradient><clipPath id="clipPath124" clipPathUnits="userSpaceOnUse"><path id="path126" inkscape:connector-curvature="0" d="m0,595.28,841.89,0v-595.28h-841.89v595.28z"/></clipPath></defs><sodipodi:namedview id="namedview4" fit-margin-left="0" inkscape:zoom="0.55048947" borderopacity="1" inkscape:current-layer="g10" inkscape:cx="134.22543" inkscape:cy="13.050356" inkscape:window-maximized="0" showgrid="false" fit-margin-right="0" bordercolor="#666666" inkscape:window-x="147" guidetolerance="10" objecttolerance="10" inkscape:window-y="38" fit-margin-bottom="0" inkscape:window-width="1139" inkscape:pageopacity="0" inkscape:pageshadow="2" pagecolor="#ffffff" gridtolerance="10" inkscape:window-height="693" fit-margin-top="0"/><g id="g10" inkscape:label="CADICEA_logo_fr_®-CMYK" inkscape:groupmode="layer" transform="matrix(1.25,0,0,-1.25,-395.96251,435.12404)"><g id="g3847" transform="translate(29.065043,-10.172765)"><g id="g12"><g id="g14" clip-path="url(#clipPath16)"><g id="g20" transform="translate(311.6138,326.9277)"><path id="path22" d="M0,0c0.008-1.438,1.18-2.596,2.617-2.588,1.438,0.008,2.596,1.179,2.588,2.617s-1.18,2.596-2.617,2.588c-1.438-0.009-2.596-1.18-2.588-2.617" fill-rule="nonzero" inkscape:connector-curvature="0" fill="#6d9dd9"/></g><g id="g24" transform="translate(327.5991,315.792)"><path id="path26" d="m0,0c-1.823-1.957-3.762,0.937-6.567,1.539-2.806,0.602-5.761-1.241-6.621,1.293-0.02,0.004-0.03,0.032-0.034,0.012l-0.158-0.73c-0.008-0.043,0.002-0.051,0.021-0.082,1.454-1.891,3.559-3.297,6.075-3.837,2.513-0.539,5.011-0.121,7.113,1.005,0.03,0.022,0.042,0.025,0.051,0.067l0.156,0.731c0.005,0.019-0.016-0.001-0.036,0.002" fill-rule="nonzero" inkscape:connector-curvature="0" fill="#6d9dd9"/></g><g id="g28" transform="translate(374.4517,309.4126)"><path id="path30" d="m0,0c-3.482-0.174-4.773,1.964-5.338,2.711-1.584-1.23-3.11-2.9-7.236-2.9-3.797,0-7.661,1.455-9.118,4.947-0.708-0.926-1.4-1.695-2.079-2.329,1.562-3.243,5.288-4.608,8.957-4.608,4.126,0,5.653,1.67,7.236,2.901,0.564-0.747,1.855-2.886,5.338-2.712,3.334,0.166,5.272,1.886,6.648,3.41-1.135-0.753-2.554-1.328-4.408-1.42" fill-rule="nonzero" inkscape:connector-curvature="0" fill="#b3c8eb"/></g><g id="g32" transform="translate(345.6626,309.4751)"><path id="path34" d="M0,0c-3.336,0-5.088,2.505-5.427,3.34-0.075-0.073-0.153-0.148-0.233-0.224-0.6-0.649-1.238-1.308-1.914-1.964,0.498-0.974,2.23-3.141,5.334-3.141,1.92,0.041,3.844,1.01,5.891,3.251-1.238-0.841-2.446-1.236-3.651-1.262" fill-rule="nonzero" inkscape:connector-curvature="0" fill="#b3c8eb"/></g><g id="g36" transform="translate(427.3574,309.3872)"><path id="path38" d="M0,0c-5.54,0-9.345,1.994-10.554,5.717-0.024-0.037-0.049-0.075-0.072-0.112-0.352-0.519-1.022-1.344-2.044-2.205,1.324-3.509,5.058-5.39,10.43-5.39,6.193,0,9.636,2.759,11.24,4.587-1.955-1.363-4.861-2.597-9-2.597" fill-rule="nonzero" inkscape:connector-curvature="0" fill="#b3c8eb"/></g><g id="g40" transform="translate(461.4883,309.4751)"><path id="path42" d="m0,0c-3.336,0-5.088,2.505-5.428,3.34-1.412-1.363-3.674-3.428-7.744-3.428-4.414,0-7.765,2.193-8.904,5.638-0.006-0.01-0.014-0.022-0.022-0.032-0.365-0.539-1.045-1.401-2.093-2.288,1.24-3.251,4.509-5.308,8.779-5.308,4.07,0,6.332,2.066,7.744,3.429,0.34-0.836,2.092-3.34,5.428-3.34,2.035,0,3.619,0.922,4.183,2.065l0.108,0.271c-0.602-0.219-1.295-0.347-2.051-0.347" fill-rule="nonzero" inkscape:connector-curvature="0" fill="#b3c8eb"/></g><g id="g44" transform="translate(404.3052,309.3325)"><path id="path46" d="m0,0c-3.551,0-6.484,1.135-8.356,3.029-0.443-0.331-1.786-1.526-5.169-2.476-2.938-0.673-8.901-0.596-9.498,3.138-0.606-0.684-1.321-1.425-2.222-2.059,0.663-3.662,6.561-3.737,9.479-3.068,3.385,0.949,4.727,2.144,5.169,2.476,1.872-1.894,4.806-3.03,8.357-3.03,6.455,0,10.071,2.886,11.689,4.724-2.031-1.419-5.095-2.734-9.449-2.734" fill-rule="nonzero" inkscape:connector-curvature="0" fill="#b3c8eb"/></g><g id="g48" transform="translate(319.4282,301.8022)"><path id="path50" d="m0,0c-13.717-0.813-27.619,6.628-29.36,21.698-0.853,7.376,2.809,15.556,9.327,21.829-7.904-6.458-12.514-15.635-11.568-23.819,1.743-15.07,15.645-22.51,29.361-21.698,8.127,0.481,14.1,4.461,18.459,8.634-4.106-3.375-9.405-6.241-16.219-6.644" fill-rule="nonzero" inkscape:connector-curvature="0" fill="#b3c8eb"/></g></g></g><g id="g52"><g id="g54"><g id="g60"><g id="g62"><path id="path70" inkscape:connector-curvature="0" fill="url(#linearGradient64)" d="m321.4,358.11c-18.955-1.858-32.919-18.338-31.336-32.034,1.741-15.069,15.643-22.51,29.36-21.698,9.526,0.564,16.102,5.935,20.574,10.79,0.08,0.076,0.158,0.15,0.234,0.223,0.338-0.835,2.091-3.339,5.427-3.339,2.291,0.048,4.587,1.414,7.096,4.695,1.458-3.493,5.321-4.947,9.118-4.947,4.126,0,5.652,1.67,7.236,2.9,0.566-0.747,1.856-2.886,5.338-2.711,3.481,0.173,5.444,2.042,6.83,3.611,0.598-3.735,6.561-3.811,9.499-3.138,3.384,0.95,4.726,2.145,5.169,2.476,1.872-1.894,4.806-3.029,8.356-3.029,7.724,0,11.393,4.138,12.426,5.66,0.023,0.036,0.049,0.075,0.072,0.111,1.209-3.722,5.015-5.717,10.555-5.717,7.531,0,11.001,4.084,12.033,5.606,0.007,0.01,0.015,0.022,0.021,0.032,1.139-3.445,4.49-5.638,8.904-5.638,4.071,0,6.332,2.065,7.745,3.428,0.34-0.835,2.091-3.339,5.427-3.339,2.035,0,3.619,0.922,4.184,2.065l0.734,1.845h-0.678c-3.052,0-3.617,1.495-3.617,3.648,0,4.701,3.108,12.127,4.295,13.973,0,0-5.378,0.185-6.453-1.089-0.679,0.483-3.215,1.528-6.492,1.528-6.527,0-11.53-4.238-13.526-9.121-1.132-2.44-2.724-4.948-4.355-6.582-1.767-1.772-4.365-2.844-7.367-2.556-1.957,0.223-5.008,1.526-4.19,5.209,7.45,0.106,14.981,2.9,14.981,8.305,0,4.394-6.332,4.745-7.406,4.745-6.326,0-11.728-3.719-14.025-8.532-0.013,0.017-0.022,0.026-0.022,0.026-1.142-2.627-2.864-5.425-4.632-7.197s-5.149-2.89-7.317-2.597c-4.051,0.586-3.938,4.611-3.938,4.611,0.077,5.13,3.768,8.692,6.652,8.692,2.28-0.01,1.573-1.365,2.261-2.066,1.149-1.204,3.506-0.215,4.119,0.592,0.612,0.804,1.541,3.221-0.86,4.924-0.679,0.484-2.355,1.603-5.635,1.603-8.536,0-14.472-7.25-14.472-13.71,0-1.2,0.256-2.312,0.728-3.311-1.143-0.68-2.338-0.98-3.599-0.888-1.072,0.159-1.713,0.646-1.713,1.866,0,0.527,0.172,1.407,0.283,2.064l2.771,13.668s-5.402,1.506-7.781-4.751c-1.942-4.589-2.339-5.396-2.339-5.396s-0.898-2.198-2.425-4.62c-0.939-1.492-2.288-2.232-3.083-1.652s-0.781,1.99-0.411,3.822c0.372,1.83,4.77,23.499,4.77,23.499s-7.562,0.027-8.804-5.916l-1.374-5.817c-1.243,0.483-2.035,0.924-4.126,0.924-6.548,0-11.338-4.155-13.3-8.586-1.159-2.101-2.101-4.922-3.314-6.74s-3.725-3.051-3.727,1.076c0.071,4.869,3.108,12.127,4.296,13.973,0,0-5.38,0.185-6.453-1.089-0.678,0.483-3.213,1.528-6.493,1.528-8.537,0-14.474-7.249-14.474-13.709,0-4.331,2.925-7.458,7.312-8.187-2.864-1.548-6.295-2.548-10.436-2.548-7.356,0-16.421,5.491-16.74,15.004,0,5.287,0.938,7.916,2.033,10.506,2.799,6.455,9.689,13.406,17.386,14.399,7.695,0.993,8.75-1.551,11.015-4.779,2.267-3.227,6.451-3.053,8.3-0.285,1.848,2.767,1.633,6.247-1.393,9.054-2.997,2.683-6.626,3.737-10.041,4.388-1.645,0.315-3.588,0.408-5.281,0.408-1.818,0-3.349-0.107-3.912-0.163m109.5-27.98c0.791,0,1.582-0.44,1.582-1.186,0-2.506-4.184-4.264-7.688-4.307,1.072,3.251,4.24,5.493,6.106,5.493m15.982-10.415c0,5.273,3.789,9.316,6.672,9.316,1.299,0,2.26-0.572,2.26-2.066,0-2.899-2.486-9.887-6.557-9.887-1.98,0-2.375,1.538-2.375,2.637m-115.82,0c0,5.273,3.788,9.316,6.671,9.316,1.3,0,2.261-0.572,2.261-2.066,0-2.899-2.487-9.887-6.557-9.887-1.979,0-2.375,1.538-2.375,2.637m28.99-0.033c0,3.56,2.828,9.184,6.898,9.184,1.3,0,2.205-0.922,2.205-1.889,0-3.296-2.148-10.063-6.502-10.063-1.753,0-2.601,1.186-2.601,2.768"/></g></g></g></g><g id="g72"><g id="g74"><g id="g80"><g id="g82"><path id="path94" inkscape:connector-curvature="0" fill="url(#linearGradient84)" d="m322.72,346.91c-4.372-0.563-8.481-3.05-11.729-6.273,2.812,2.225,6.07,3.843,9.488,4.284,7.696,0.993,8.751-1.551,11.016-4.779,2.266-3.228,6.451-3.052,8.299-0.285,0.06,0.09,0.113,0.183,0.169,0.275-2.025-0.864-4.613-0.301-6.228,1.999-1.926,2.746-2.979,4.997-7.984,4.997-0.88,0-1.881-0.069-3.031-0.218"/></g></g></g></g><g id="g96"><g id="g98"><g id="g104"><g id="g106"><path id="path118" inkscape:connector-curvature="0" fill="url(#radialGradient108)" d="m386.04,340c0-1.538,1.077-2.943,4.016-2.943,2.375,0,4.58,1.405,4.58,3.206,0,1.716-1.584,3.077-3.846,3.077-2.882,0-4.75-1.669-4.75-3.34"/></g></g></g></g><g id="g120"><g id="g122" clip-path="url(#clipPath124)"><g id="g128" transform="translate(470.7236,331.2285)"><path id="path130" d="M0,0,0.27,0c0.314,0,0.57,0.105,0.57,0.36,0,0.225-0.166,0.375-0.526,0.375-0.15,0-0.254-0.015-0.314-0.03v-0.705zm-0.016-1.395-0.57,0,0,2.46c-0.044,0.045,0.271,0.075,0.675,0.075,0.465,0,0.676-0.075,0.856-0.18,0.135-0.106,0.24-0.3,0.24-0.54,0-0.27-0.211-0.48-0.511-0.57v-0.03c0.241-0.09,0.375-0.27,0.451-0.6,0.074-0.375,0.12-0.525,0.179-0.615h-0.615c-0.074,0.09-0.119,0.315-0.194,0.6-0.046,0.27-0.196,0.39-0.511,0.39h-0.27v-0.99zm-1.514,1.29c0-1.095,0.809-1.965,1.92-1.965,1.079,0,1.874,0.87,1.874,1.95,0,1.095-0.795,1.98-1.889,1.98-1.096,0-1.905-0.885-1.905-1.965m4.425,0c0-1.395-1.096-2.49-2.52-2.49-1.41,0-2.535,1.095-2.535,2.49,0,1.365,1.125,2.459,2.535,2.459,1.424,0,2.52-1.094,2.52-2.459" fill-rule="nonzero" inkscape:connector-curvature="0" fill="#2f6bbd"/></g></g></g></g></g></svg>
