<?xml version="1.0" encoding="UTF-8" standalone="no" ?>
<!-- Created with Inkscape (http://www.inkscape.org/) -->
<svg id="svg3004" xmlns:rdf="http://www.w3.org/1999/02/22-rdf-syntax-ns#" xmlns="http://www.w3.org/2000/svg" xml:space="preserve" height="100%" width="100%" version="1.1" viewBox="0 0 400 130" xmlns:cc="http://creativecommons.org/ns#" xmlns:dc="http://purl.org/dc/elements/1.1/">
    <metadata id="metadata3010">
        <rdf:RDF>
            <cc:Work rdf:about="">
                <dc:format>image/svg+xml</dc:format>
                <dc:type rdf:resource="http://purl.org/dc/dcmitype/StillImage" />
                <dc:title/>
            </cc:Work>
        </rdf:RDF>
    </metadata>
    <defs id="defs3008">
        <linearGradient id="linearGradient3026" gradientUnits="userSpaceOnUse" gradientTransform="matrix(54.710449,0,0,-54.710449,38.471191,75.805664)">
            <stop id="stop3028" stop-color="#e61762" offset="0" />
            <stop id="stop3030" stop-color="#f8cae0" offset="0.59025" />
            <stop id="stop3032" stop-color="#e61762" offset="0.80215" />
            <stop id="stop3034" stop-color="#e94675" offset="1" />
        </linearGradient>
        <clipPath id="clipPath3042" clipPathUnits="userSpaceOnUse">
            <path id="path3044" d="m0,101.33,319.36,0v-101.33h-319.36v101.33z" />
        </clipPath>
        <linearGradient id="linearGradient3066" gradientUnits="userSpaceOnUse" gradientTransform="matrix(-4.1e-6,94.79142,94.79142,4.1e-6,161.80078,5.9169922)">
            <stop id="stop3068" stop-color="#0581c4" offset="0" />
            <stop id="stop3070" stop-color="#1a4f9c" offset="1" />
        </linearGradient>
        <radialGradient id="radialGradient3086" gradientUnits="userSpaceOnUse" cy="0" cx="0" gradientTransform="matrix(-6.9826078,-5.9850941,-5.9850941,6.9826078,185.83887,70.901367)" r="1">
            <stop id="stop3088" stop-color="#f8cae0" offset="0" />
            <stop id="stop3090" stop-color="#f4a6be" offset="0.2857" />
            <stop id="stop3092" stop-color="#e61762" offset="0.80215" />
            <stop id="stop3094" stop-color="#e94675" offset="1" />
        </radialGradient>
        <clipPath id="clipPath3102" clipPathUnits="userSpaceOnUse">
            <path id="path3104" d="m0,101.33,319.36,0v-101.33h-319.36v101.33z" />
        </clipPath>
        <clipPath id="clipPath3110" clipPathUnits="userSpaceOnUse">
            <path id="path3112" d="m0,77.891,313.87,0v-77.891h-313.87v77.891z" />
        </clipPath>
        <linearGradient id="linearGradient3118" gradientUnits="userSpaceOnUse" gradientTransform="matrix(88.704102,0,0,-88.704102,0,38.945313)">
            <stop id="stop3120" stop-color="#397dc0" offset="0" />
            <stop id="stop3122" stop-color="#1a4f9c" offset="1" />
        </linearGradient>
        <linearGradient id="linearGradient3128" gradientUnits="userSpaceOnUse" gradientTransform="matrix(39.251953,0,0,-39.251953,226.64746,20.111328)">
            <stop id="stop3130" stop-color="#397dc0" offset="0" />
            <stop id="stop3132" stop-color="#1a4f9c" offset="1" />
        </linearGradient>
        <linearGradient id="linearGradient3138" gradientUnits="userSpaceOnUse" gradientTransform="matrix(113.2793,0,0,-113.2793,112.2959,19.130859)">
            <stop id="stop3140" stop-color="#397dc0" offset="0" />
            <stop id="stop3142" stop-color="#1a4f9c" offset="1" />
        </linearGradient>
        <linearGradient id="linearGradient3148" gradientUnits="userSpaceOnUse" gradientTransform="matrix(46.851562,0,0,-46.851562,267.02051,20.039062)">
            <stop id="stop3150" stop-color="#397dc0" offset="0" />
            <stop id="stop3152" stop-color="#1a4f9c" offset="1" />
        </linearGradient>
        <linearGradient id="linearGradient3158" gradientUnits="userSpaceOnUse" gradientTransform="matrix(20.780273,0,0,-20.780273,89.817383,18.145508)">
            <stop id="stop3160" stop-color="#397dc0" offset="0" />
            <stop id="stop3162" stop-color="#1a4f9c" offset="1" />
        </linearGradient>
    </defs>
    <g id="g3012" transform="matrix(1.25,0,0,-1.25,0,126.6675)">
        <g id="g3014">
            <g id="g3016">
                <g id="g3022">
                    <g id="g3024">
                        <path id="path3036" fill="url(#linearGradient3026)" d="M61.178,83.366c-8.618-1.111-16.668-6.407-22.707-13.044,5.652,5.333,12.639,9.383,20.046,10.338,13.743,1.773,15.627-2.771,19.673-8.535,4.046-5.763,11.518-5.45,14.82-0.507,0.059,0.088,0.115,0.179,0.172,0.269-3.731-2.376-9.115-1.639-12.332,2.945-3.441,4.903-5.32,8.923-14.261,8.923-1.57,0-3.358-0.124-5.411-0.389" />
                    </g>
                </g>
            </g>
        </g>
        <g id="g3038">
            <g id="g3040" clip-path="url(#clipPath3042)">
                <g id="g3046" transform="translate(42.9409,45.3623)">
                    <path id="path3048" fill-rule="nonzero" fill="#72a3d7" d="m0,0c0.014-2.567,2.107-4.635,4.673-4.621,2.566,0.015,4.635,2.105,4.62,4.673-0.013,2.567-2.106,4.635-4.673,4.62-2.566-0.014-4.634-2.105-4.62-4.672" />
                </g>
                <g id="g3050" transform="translate(71.4854,25.4775)">
                    <path id="path3052" fill-rule="nonzero" fill="#72a3d7" d="m0,0c-3.256-3.495-6.718,1.672-11.727,2.748-5.01,1.074-10.288-2.216-11.822,2.308-0.036,0.007-0.055,0.058-0.062,0.022l-0.281-1.304c-0.016-0.076,0.002-0.089,0.036-0.146,2.597-3.377,6.356-5.887,10.848-6.852,4.49-0.963,8.948-0.216,12.702,1.795,0.055,0.039,0.076,0.045,0.091,0.119l0.28,1.305c0.008,0.035-0.03-0.002-0.065,0.005" />
                </g>
            </g>
        </g>
        <g id="g3054">
            <g id="g3056">
                <g id="g3062">
                    <g id="g3064">
                        <path id="path3072" fill="url(#linearGradient3066)" d="M60.422,101.04c-33.846-3.313-58.785-32.743-55.957-57.2,3.11-26.91,27.937-40.198,52.429-38.746,17.011,1.005,28.754,10.597,36.74,19.266,0.143,0.136,0.283,0.268,0.417,0.4,0.605-1.491,3.734-5.964,9.691-5.964,4.091,0.087,8.193,2.525,12.672,8.385,2.602-6.237,9.502-8.835,16.281-8.835,7.37,0,10.095,2.982,12.922,5.179,1.01-1.334,3.315-5.152,9.532-4.841s9.721,3.646,12.198,6.449c1.066-6.669,11.714-6.807,16.96-5.604,6.044,1.696,8.442,3.83,9.231,4.421,3.342-3.381,8.582-5.409,14.922-5.409,13.793,0,20.346,7.389,22.189,10.108,0.044,0.064,0.087,0.133,0.129,0.199,2.161-6.649,8.955-10.209,18.848-10.209,13.449,0,19.647,7.291,21.488,10.01,0.012,0.018,0.025,0.038,0.037,0.057,2.036-6.151,8.018-10.067,15.9-10.067,7.268,0,11.307,3.687,13.831,6.121,0.605-1.491,3.734-5.964,9.691-5.964,3.635,0,6.463,1.647,7.471,3.689l1.312,3.295h-1.211c-5.451,0-6.461,2.668-6.461,6.513,0,8.395,5.552,21.657,7.672,24.952,0,0-9.605,0.329-11.523-1.944-1.213,0.862-5.74,2.729-11.595,2.729-11.655,0-20.589-7.569-24.153-16.288-2.021-4.358-4.865-8.836-7.776-11.754-3.156-3.164-7.796-5.078-13.156-4.564-3.495,0.396-8.943,2.724-7.482,9.301,13.304,0.19,26.752,5.179,26.752,14.831,0,7.846-11.307,8.474-13.225,8.474-11.298,0-20.945-6.642-25.047-15.237-0.023,0.029-0.036,0.046-0.036,0.046-2.04-4.69-5.116-9.687-8.272-12.851-3.157-3.164-9.196-5.161-13.067-4.639-7.234,1.047-7.033,8.236-7.033,8.236,0.137,9.159,6.731,15.521,11.879,15.521,4.073-0.018,2.811-2.437,4.039-3.689,2.051-2.15,6.26-0.384,7.353,1.055,1.095,1.439,2.754,5.753-1.534,8.795-1.214,0.863-4.206,2.862-10.061,2.862-15.245,0-25.844-12.946-25.844-24.483,0-2.142,0.457-4.13,1.301-5.913-2.043-1.214-4.175-1.748-6.43-1.584-1.912,0.285-3.056,1.153-3.056,3.331,0,0.942,0.305,2.512,0.504,3.688l4.949,24.405s-9.648,2.688-13.896-8.483c-3.467-8.196-4.176-9.635-4.176-9.635s-1.606-3.926-4.33-8.252c-1.676-2.664-4.087-3.985-5.507-2.949-1.42,1.035-1.395,3.555-0.733,6.824,0.664,3.27,8.517,41.964,8.517,41.964s-13.502,0.047-15.721-10.565l-2.452-10.387c-2.22,0.864-3.633,1.649-7.369,1.649-11.693,0-20.246-7.419-23.75-15.331-2.069-3.752-3.752-8.788-5.917-12.035-2.164-3.246-6.654-5.449-6.656,1.92,0.127,8.694,5.552,21.657,7.672,24.952,0,0-9.606,0.329-11.524-1.944-1.212,0.862-5.74,2.729-11.594,2.729-15.233,0-25.834-12.946-25.834-24.482,0-7.733,5.223-13.318,13.055-14.618-5.114-2.764-11.24-4.55-18.635-4.55-13.136,0-29.324,9.804-29.894,26.791,0,9.442,1.674,14.137,3.633,18.763,4.996,11.524,17.299,23.938,31.042,25.711,13.744,1.774,15.628-2.77,19.673-8.534,4.046-5.763,11.518-5.451,14.82-0.509s2.918,11.156-2.487,16.167c-5.35,4.792-11.834,6.675-17.93,7.838-2.939,0.561-6.409,0.727-9.432,0.727-3.247,0-5.978-0.191-6.985-0.29m195.57-50.081c1.415,0,2.827-0.785,2.827-2.119,0-4.473-7.471-7.612-13.731-7.689,1.918,5.806,7.572,9.808,10.904,9.808m28.539-18.598c0,9.416,6.766,16.636,11.914,16.636,2.32,0,4.038-1.021,4.038-3.688,0-5.178-4.442-17.657-11.711-17.657-3.534,0-4.241,2.747-4.241,4.709m-206.83,0c0,9.416,6.765,16.636,11.914,16.636,2.321,0,4.038-1.021,4.038-3.688,0-5.178-4.443-17.657-11.712-17.657-3.531,0-4.24,2.747-4.24,4.709m51.769-0.058c0,6.357,5.049,16.399,12.318,16.399,2.322,0,3.938-1.646,3.938-3.372,0-5.885-3.838-17.97-11.612-17.97-3.129,0-4.644,2.118-4.644,4.943" />
                    </g>
                </g>
            </g>
        </g>
        <g id="g3074">
            <g id="g3076">
                <g id="g3082">
                    <g id="g3084">
                        <path id="path3096" fill="url(#radialGradient3086)" d="m175.84,68.715c0-2.746,1.92-5.257,7.17-5.257,4.24,0,8.177,2.511,8.177,5.728,0,3.061-2.828,5.492-6.865,5.492-5.148,0-8.482-2.979-8.482-5.963" />
                    </g>
                </g>
            </g>
        </g>
        <g id="g3098">
            <g id="g3100" clip-path="url(#clipPath3102)">
                <g id="g3106">
                    <g id="g3164">
                        <g id="g3166" opacity="0.350006" clip-path="url(#clipPath3110)">
                            <g id="g3168">
                                <g id="g3170">
                                    <g id="g3172">
                                        <g id="g3174">
                                            <path id="path3176" fill="url(#linearGradient3118)" d="M55.307,2.813c-24.492-1.45-49.318,11.835-52.429,38.747-1.404,12.154,4.049,25.535,14.044,36.331-11.672-11.207-18.229-25.845-16.704-39.037,3.112-26.911,27.937-40.196,52.429-38.747,16.534,0.979,28.09,10.067,36.057,18.536-7.816-7.6-18.618-14.955-33.397-15.83" />
                                        </g>
                                    </g>
                                </g>
                            </g>
                            <g id="g3178">
                                <g id="g3180">
                                    <g id="g3182">
                                        <g id="g3184">
                                            <path id="path3186" fill="url(#linearGradient3128)" d="m248.04,16.359c-9.893,0-16.687,3.561-18.848,10.209-0.043-0.066-0.086-0.132-0.13-0.199-0.475-0.701-1.268-1.715-2.415-2.832,2.274-6.437,9.002-9.884,18.735-9.884,11.666,0,17.873,5.488,20.517,8.716-3.408-2.91-9.091-6.01-17.859-6.01" />
                                        </g>
                                    </g>
                                </g>
                            </g>
                            <g id="g3188">
                                <g id="g3190">
                                    <g id="g3192">
                                        <g id="g3194">
                                            <path id="path3196" fill="url(#linearGradient3138)" d="m206.87,16.262c-6.338,0-11.58,2.027-14.922,5.41-0.787-0.592-3.189-2.726-9.228-4.422-5.246-1.202-15.895-1.064-16.961,5.604-2.479-2.801-5.981-6.138-12.199-6.45-6.217-0.312-8.521,3.509-9.531,4.842-2.827-2.197-5.553-5.18-12.922-5.18-6.779,0-13.68,2.6-16.281,8.835-0.857-1.122-1.701-2.116-2.532-2.993,2.692-6.026,9.479-8.547,16.153-8.547,7.37,0,10.095,2.982,12.922,5.179,1.01-1.335,3.313-5.153,9.531-4.843,6.218,0.312,9.72,3.649,12.197,6.45,1.068-6.668,11.714-6.805,16.963-5.604,6.041,1.696,8.441,3.83,9.23,4.423,3.34-3.384,8.582-5.411,14.922-5.411,12.211,0,18.746,5.791,21.361,9.006-3.506-3-9.486-6.299-18.703-6.299" />
                                        </g>
                                    </g>
                                </g>
                            </g>
                            <g id="g3198">
                                <g id="g3200">
                                    <g id="g3202">
                                        <g id="g3204">
                                            <path id="path3206" fill="url(#linearGradient3148)" d="m308.99,16.518c-5.957,0-9.086,4.471-9.691,5.962-2.524-2.431-6.563-6.121-13.83-6.121-7.883,0-13.865,3.916-15.901,10.067-0.013-0.018-0.025-0.038-0.039-0.057-0.498-0.734-1.316-1.805-2.505-2.973,2.134-5.962,8.042-9.743,15.785-9.743,7.267,0,11.306,3.689,13.83,6.121,0.605-1.491,3.734-5.963,9.691-5.963,3.633,0,6.461,1.647,7.471,3.688l0.074,0.188c-1.312-0.718-2.986-1.169-4.885-1.169" />
                                        </g>
                                    </g>
                                </g>
                            </g>
                            <g id="g3208">
                                <g id="g3210">
                                    <g id="g3212">
                                        <g id="g3214">
                                            <path id="path3216" fill="url(#linearGradient3158)" d="m102.16,16.518c-5.956,0-9.086,4.471-9.69,5.962-0.134-0.128-0.274-0.263-0.418-0.398-0.712-0.775-1.456-1.555-2.23-2.337,0.632-1.518,3.758-5.934,9.678-5.934,3.609,0.078,7.226,1.984,11.103,6.454-2.895-2.549-5.671-3.689-8.443-3.747" />
                                        </g>
                                    </g>
                                </g>
                            </g>
                        </g>
                    </g>
                </g>
            </g>
        </g>
    </g>
</svg>